G04 ================== begin FILE IDENTIFICATION RECORD ==================*
G04 Layout Name:  C:/USERS/USER/DESKTOP/WORK/CADCAD3/allegro/DA_CONVERTOR.brd*
G04 Film Name:    Design*
G04 File Format:  Gerber RS274X*
G04 File Origin:  Cadence Allegro 17.2-P019*
G04 Origin Date:  Wed Jul 31 17:00:05 2019*
G04 *
G04 Layer:  VIA CLASS/BOTTOM*
G04 Layer:  VIA CLASS/TOP*
G04 Layer:  ROUTE KEEPOUT/ALL*
G04 Layer:  ROUTE KEEPIN/ALL*
G04 Layer:  REF DES/SILKSCREEN_TOP*
G04 Layer:  REF DES/SILKSCREEN_BOTTOM*
G04 Layer:  PIN/BOTTOM*
G04 Layer:  PIN/TOP*
G04 Layer:  PACKAGE KEEPIN/ALL*
G04 Layer:  PACKAGE GEOMETRY/PIN_NUMBER*
G04 Layer:  PACKAGE GEOMETRY/SILKSCREEN_TOP*
G04 Layer:  PACKAGE GEOMETRY/SILKSCREEN_BOTTOM*
G04 Layer:  PACKAGE GEOMETRY/SOLDERMASK_TOP*
G04 Layer:  PACKAGE GEOMETRY/SOLDERMASK_BOTTOM*
G04 Layer:  PACKAGE GEOMETRY/PASTEMASK_TOP*
G04 Layer:  PACKAGE GEOMETRY/PASTEMASK_BOTTOM*
G04 Layer:  ETCH/BOTTOM*
G04 Layer:  ETCH/TOP*
G04 Layer:  BOARD GEOMETRY/OUTLINE*
G04 Layer:  BOARD GEOMETRY/SILKSCREEN_TOP*
G04 Layer:  BOARD GEOMETRY/SILKSCREEN_BOTTOM*
G04 Layer:  BOARD GEOMETRY/SOLDERMASK_TOP*
G04 Layer:  BOARD GEOMETRY/SOLDERMASK_BOTTOM*
G04 Layer:  BOARD GEOMETRY/DESIGN_OUTLINE*
G04 *
G04 Offset:    (0.000 0.000)*
G04 Mirror:    No*
G04 Mode:      Positive*
G04 Rotation:  0*
G04 FullContactRelief:  No*
G04 UndefLineWidth:     0.000*
G04 ================== end FILE IDENTIFICATION RECORD ====================*
%FSLAX25Y25*MOMM*%
%IR0*IPPOS*OFA0.00000B0.00000*MIA0B0*SFA1.00000B1.00000*%
%ADD11C,1.524*%
%ADD13C,1.651*%
%ADD12R,1.524X1.524*%
%ADD10C,.635*%
%ADD14C,1.*%
%ADD15C,.5*%
%ADD17C,2.528*%
%ADD16C,2.656*%
G75*
%LPD*%
G75*
G36*
G01X625200Y5475500D02*
Y5518900D01*
X825800Y5719400D01*
X828400Y5719000D01*
G03X719000Y5828400I21600J131000D01*
G01X719400Y5825800D01*
X517400Y5623800D01*
G02X500000Y5631000I-7215J7188D01*
G01Y6245800D01*
X754200D01*
Y6477000D01*
X9245800D01*
Y6245800D01*
X9525000D01*
Y3389800D01*
G02X9513700Y3379700I-10182J21D01*
G03X9453500Y3136500I-13704J-125659D01*
G02Y3117500I-3796J-9500D01*
G03X9513700Y2874300I46496J-117541D01*
G02X9525000Y2864200I1118J-10121D01*
G01Y754200D01*
X9245800D01*
Y500000D01*
X754200D01*
Y754200D01*
X500000D01*
Y2254700D01*
G02X517400Y2261900I10198J-20D01*
G01X911000Y1868300D01*
X1256500D01*
G03X1287000Y1851000I76993J100203D01*
G02Y1832000I-3796J-9500D01*
G03Y1597000I46500J-117500D01*
G02Y1578000I-3796J-9500D01*
G03X1380000I46500J-117500D01*
G02Y1597000I3796J9500D01*
G03Y1832000I-46500J117500D01*
G02Y1851000I3796J9500D01*
G03Y2086000I-46500J117500D01*
G02Y2105000I3796J9500D01*
G03Y2340000I-46500J117500D01*
G02Y2359000I3796J9500D01*
G03Y2594000I-46500J117500D01*
G02Y2613000I3796J9500D01*
G03X1398100Y2839100I-46528J117499D01*
G02X1403300Y2858100I5194J8790D01*
G01X1409700D01*
G03X1459900Y2908300I0J50200D01*
G01Y3060700D01*
G03X1409700Y3110900I-50200J0D01*
G01X1257300D01*
G03X1207100Y3060700I0J-50200D01*
G01Y2908300D01*
G03X1257300Y2858100I50200J0D01*
G01X1263700D01*
G02X1268900Y2839100I6J-10210D01*
G03X1287000Y2613000I64628J-108601D01*
G02Y2594000I-3796J-9500D01*
G03Y2359000I46500J-117500D01*
G02Y2340000I-3796J-9500D01*
G03Y2105000I46500J-117500D01*
G02Y2086000I-3796J-9500D01*
G03X1256500Y2068700I46493J-117503D01*
G01X994000D01*
X500000Y2562700D01*
Y2611600D01*
G03X625100Y2720000I0J126386D01*
G01X625300Y2721600D01*
X2012200Y4108500D01*
Y4272900D01*
G03X1794500Y4396500I-100170J77088D01*
G02X1775500I-9500J3796D01*
G03X1733200Y4451600I-117544J-46451D01*
G01Y4659600D01*
X1422300Y4970600D01*
G02X1427600Y4987800I7193J7200D01*
G03X1521500Y5065500I-23646J124165D01*
G02X1540500I9500J-3796D01*
G03X1775500I117500J46500D01*
G02X1794500I9500J-3796D01*
G03Y5158500I117500J46500D01*
G02X1775500I-9500J3796D01*
G03X1733200Y5213600I-117544J-46451D01*
G01Y5610900D01*
X1841800Y5719400D01*
X1844400Y5719000D01*
G03X1735000Y5828400I21600J131000D01*
G01X1735400Y5825800D01*
X1582800Y5673100D01*
Y5213600D01*
G03X1540500Y5158500I75244J-101551D01*
G02X1521500I-9500J3796D01*
G03X1286500I-117500J-46500D01*
G02X1267500I-9500J3796D01*
G03X1043500Y5043900I-117537J-46476D01*
G02X1034900Y5028200I-8577J-5507D01*
G01X994100D01*
X680600Y5341800D01*
X681000Y5344400D01*
G03X625200Y5475500I-131024J21658D01*
G37*
G36*
G01X639400Y3019100D02*
G02X622300Y3023800I-7209J7229D01*
G03X546500Y3109500I-122309J-31808D01*
G02Y3128500I3796J9500D01*
G03Y3363500I-46500J117500D01*
G02Y3382500I3796J9500D01*
G03X500000Y3626400I-46500J117517D01*
G01Y4212700D01*
G02X513000Y4222400I10178J-79D01*
G03Y4477600I37000J127600D01*
G02X500000Y4487300I-2822J9779D01*
G01Y5228700D01*
G02X513000Y5238400I10178J-79D01*
G03X571700Y5235000I36840J127609D01*
G01X574200Y5235400D01*
X931900Y4877800D01*
X1302400D01*
X1582800Y4597400D01*
Y4451600D01*
G03X1540500Y4396500I75244J-101551D01*
G02X1521500I-9500J3796D01*
G03X1295400Y4414600I-117499J-46528D01*
G02X1276400Y4419800I-8790J5194D01*
G01Y4426200D01*
G03X1226200Y4476400I-50200J0D01*
G01X1073800D01*
G03X1023600Y4426200I0J-50200D01*
G01Y4273800D01*
G03X1073800Y4223600I50200J0D01*
G01X1226200D01*
G03X1276400Y4273800I0J50200D01*
G01Y4280200D01*
G02X1295400Y4285400I10210J6D01*
G03X1521500Y4303500I108601J64628D01*
G02X1540500I9500J-3796D01*
G03X1775500I117500J46500D01*
G02X1794500I9500J-3796D01*
G03X1811800Y4272900I117612J46303D01*
G01Y4191500D01*
X639400Y3019100D01*
G37*
%LPC*%
G75*
G36*
G01X4023600Y3823800D02*
Y3976200D01*
G02X4073800Y4026400I50200J0D01*
G01X4226200D01*
G02X4276400Y3976200I0J-50200D01*
G01Y3823800D01*
G02X4226200Y3773600I-50200J0D01*
G01X4073800D01*
G02X4023600Y3823800I0J50200D01*
G37*
G36*
G01X2664600Y5825800D02*
X2869200Y5621100D01*
Y5048900D01*
X2625200Y4804900D01*
Y4009500D01*
G02X2474800I-75200J-109500D01*
G01Y4867100D01*
X2718800Y5111100D01*
Y5558900D01*
X2558200Y5719400D01*
X2555700Y5719000D01*
G02X2665000Y5828300I-21700J131000D01*
G01X2664600Y5825800D01*
G37*
G36*
G01X3544300Y3769000D02*
X3541800Y3769400D01*
X3504200Y3731900D01*
Y3552100D01*
X3525800Y3530600D01*
X3528300Y3531000D01*
G02X3419000Y3421700I21700J-131000D01*
G01X3419400Y3424200D01*
X3353800Y3489900D01*
Y3794100D01*
X3435400Y3875800D01*
X3435000Y3878300D01*
G02X3544300Y3769000I131000J21700D01*
G37*
G36*
G01X2666400Y2908300D02*
G02X2616200Y2858100I-50200J0D01*
G01X2463800D01*
G02X2413600Y2908300I0J50200D01*
G01Y3004600D01*
X2337800Y3080400D01*
Y3310100D01*
X2403400Y3375800D01*
X2403000Y3378300D01*
G02X2512300Y3269000I131000J21700D01*
G01X2509800Y3269400D01*
X2488200Y3247900D01*
Y3142600D01*
X2519900Y3110900D01*
X2616200D01*
G02X2666400Y3060700I0J-50200D01*
G01Y2908300D01*
G37*
G36*
G01X4174200Y2730600D02*
X4179300Y2735600D01*
Y2948400D01*
X4158200Y2969400D01*
X4155700Y2969000D01*
G02X4265000Y3078300I-21700J131000D01*
G01X4264600Y3075800D01*
X4329700Y3010600D01*
Y2673400D01*
X4280600Y2624200D01*
X4281000Y2621700D01*
G02X4171700Y2731000I-131000J-21700D01*
G01X4174200Y2730600D01*
G37*
G36*
G01X5167700Y2099100D02*
X5195300Y2126600D01*
Y2464400D01*
X5190200Y2469400D01*
X5187700Y2469000D01*
G02X5297000Y2578300I-21700J131000D01*
G01X5296600Y2575800D01*
X5345700Y2526600D01*
Y2064400D01*
X5274100Y1992700D01*
X5274500Y1990200D01*
G02X5275900Y1957600I-130984J-21955D01*
G03X5293200Y1949600I10139J-780D01*
G01X5519400Y2175800D01*
X5519000Y2178300D01*
G02X5628300Y2069000I131000J21700D01*
G01X5625800Y2069400D01*
X5218700Y1662400D01*
Y1062000D01*
G02X5068300I-75200J-109500D01*
G01Y1724600D01*
X5162400Y1818800D01*
G03X5154400Y1836100I-7220J7161D01*
G02X5165200Y2099500I-10856J132367D01*
G01X5167700Y2099100D01*
G37*
G36*
G01X3263500Y4903500D02*
G02Y4996500I-117500J46500D01*
G03X3282500I9500J3796D01*
G02Y4903500I117500J-46500D01*
G03X3263500I-9500J-3796D01*
G37*
G36*
G01X7976800Y1654600D02*
X7979300Y1655000D01*
G02X7870000Y1545700I21700J-131000D01*
G01X7870400Y1548200D01*
X7608300Y1810400D01*
Y2194600D01*
X7737000Y2323300D01*
X7736600Y2325800D01*
G02X7815500Y2459500I125367J16148D01*
G03Y2478500I-3796J9500D01*
G02Y2713500I46500J117500D01*
G03Y2732500I-3796J9500D01*
G02X7984300Y2881800I46484J117518D01*
G03X8001400Y2877100I9891J2529D01*
G01X8091300Y2967000D01*
Y4425000D01*
X8001400Y4514900D01*
G03X7984300Y4510200I-7209J-7229D01*
G02X7908500Y4424500I-122309J31808D01*
G03Y4405500I3796J-9500D01*
G02X7815500I-46500J-117500D01*
G03Y4424500I-3796J9500D01*
G02Y4659500I46500J117500D01*
G03Y4678500I-3796J9500D01*
G02Y4913500I46500J117500D01*
G03Y4932500I-3796J9500D01*
G02X7908500I46500J117500D01*
G03Y4913500I3796J-9500D01*
G02X7987100Y4814000I-46493J-117522D01*
G01X7987300Y4812400D01*
X8291700Y4508000D01*
Y2884000D01*
X7987300Y2579600D01*
X7987100Y2578000D01*
G02X7908500Y2478500I-125093J18022D01*
G03Y2459500I3796J-9500D01*
G02Y2224500I-46500J-117500D01*
G03Y2205500I3796J-9500D01*
G02X7775800Y1995500I-46523J-117529D01*
G03X7758700Y1988000I-6916J-7476D01*
G01Y1872600D01*
X7976800Y1654600D01*
G37*
G36*
G01X6960800D02*
X6963300Y1655000D01*
G02X6854000Y1545700I21700J-131000D01*
G01X6854400Y1548200D01*
X6782800Y1619900D01*
Y2104700D01*
G03X6765000Y2111500I-10200J-3D01*
G02Y2288500I-99000J88500D01*
G03X6782800Y2295300I7600J6803D01*
G01Y2385100D01*
X6975000Y2577300D01*
X6974600Y2579800D01*
G02X7035400Y2704600I125367J16134D01*
G03X7030200Y2723600I-5194J8790D01*
G01X7023800D01*
G02X6973600Y2773800I0J50200D01*
G01Y2926200D01*
G02X7023800Y2976400I50200J0D01*
G01X7151400D01*
Y4094900D01*
X7083600Y4162700D01*
X7082000Y4162900D01*
G02X7053500Y4405500I18030J125092D01*
G03Y4424500I-3796J9500D01*
G02Y4659500I46500J117500D01*
G03Y4678500I-3796J9500D01*
G02X6998400Y4720800I46451J117544D01*
G01X6488900D01*
X5624200Y5585400D01*
X5621700Y5585000D01*
G02X5731000Y5694300I-21700J131000D01*
G01X5730600Y5691800D01*
X6551100Y4871200D01*
X6998400D01*
G02X7035400Y4904600I101526J-75275D01*
G03X7030200Y4923600I-5194J8790D01*
G01X7023800D01*
G02X6973600Y4973800I0J50200D01*
G01Y5126200D01*
G02X7023800Y5176400I50200J0D01*
G01X7176200D01*
G02X7226400Y5126200I0J-50200D01*
G01Y4973800D01*
G02X7176200Y4923600I-50200J0D01*
G01X7169800D01*
G03X7164600Y4904600I-6J-10210D01*
G02X7146500Y4678500I-64628J-108601D01*
G03Y4659500I3796J-9500D01*
G02Y4424500I-46500J-117500D01*
G03Y4405500I3796J-9500D01*
G02X7225100Y4306000I-46493J-117522D01*
G01X7225300Y4304400D01*
X7351800Y4177900D01*
Y2198100D01*
X7225300Y2071600D01*
X7225100Y2070000D01*
G02X7053500Y2205500I-125099J17980D01*
G03Y2224500I-3796J9500D01*
G02X6973600Y2338900I46462J117553D01*
G03X6956200Y2345900I-10194J-212D01*
G01X6933200Y2322900D01*
Y1682100D01*
X6960800Y1654600D01*
G37*
G36*
G01X2142000Y1578000D02*
G02X2049000I-46500J-117500D01*
G03Y1597000I-3796J9500D01*
G02Y1832000I46500J117500D01*
G03Y1851000I-3796J9500D01*
G02Y2086000I46500J117500D01*
G03Y2105000I-3796J9500D01*
G02Y2340000I46500J117500D01*
G03Y2359000I-3796J9500D01*
G02Y2594000I46500J117500D01*
G03Y2613000I-3796J9500D01*
G02Y2848000I46500J117500D01*
G03Y2867000I-3796J9500D01*
G02X2142000I46500J117500D01*
G03Y2848000I3796J-9500D01*
G02Y2613000I-46500J-117500D01*
G03Y2594000I3796J-9500D01*
G02Y2359000I-46500J-117500D01*
G03Y2340000I3796J-9500D01*
G02Y2105000I-46500J-117500D01*
G03Y2086000I3796J-9500D01*
G02Y1851000I-46500J-117500D01*
G03Y1832000I3796J-9500D01*
G02Y1597000I-46500J-117500D01*
G03Y1578000I3796J-9500D01*
G37*
G36*
G01X5300700Y4775200D02*
X5490500D01*
G02Y4624800I109500J-75200D01*
G01X5238500D01*
X4574800Y5288500D01*
Y5606500D01*
G02X4725200I75200J109500D01*
G01Y5350700D01*
X5300700Y4775200D01*
G37*
G54D17*
X3530600Y2984500D03*
X5140600Y3900000D03*
G54D16*
X2500000Y1250000D03*
Y1700000D03*
X2540000Y2603500D03*
X2476500Y2159000D03*
X3492500D03*
X3516000Y1250000D03*
Y1700000D03*
X3556000Y2603500D03*
X3550000Y5850000D03*
X4650000Y4700000D03*
X5650000Y2600000D03*
X5150000Y3100000D03*
X6200000Y4734000D03*
Y5750000D03*
X6666000Y2600000D03*
%LPD*%
G75*
G36*
G01X246000Y246000D02*
Y754000D01*
X754000D01*
Y246000D01*
X246000D01*
G37*
G36*
G01Y6246000D02*
Y6754000D01*
X754000D01*
Y6246000D01*
X246000D01*
G37*
G36*
G01X9246000Y246000D02*
Y754000D01*
X9754000D01*
Y246000D01*
X9246000D01*
G37*
G36*
G01Y6246000D02*
Y6754000D01*
X9754000D01*
Y6246000D01*
X9246000D01*
G37*
G54D10*
X500000Y500000D03*
D03*
Y6500000D03*
D03*
X9500000Y500000D03*
D03*
Y6500000D03*
D03*
G54D11*
X500000Y2738000D03*
D03*
Y2992000D03*
D03*
Y3246000D03*
D03*
Y3500000D03*
D03*
X1150000Y5112000D03*
D03*
X1333500Y1460500D03*
D03*
Y1714500D03*
D03*
Y1968500D03*
D03*
Y2222500D03*
D03*
Y2476500D03*
D03*
Y2730500D03*
D03*
X1912000Y4350000D03*
D03*
X1658000D03*
D03*
X1404000D03*
D03*
X1912000Y5112000D03*
D03*
X1658000D03*
D03*
X1404000D03*
D03*
X2095500Y1460500D03*
D03*
Y1714500D03*
D03*
Y1968500D03*
D03*
Y2222500D03*
D03*
Y2476500D03*
D03*
Y2730500D03*
D03*
Y2984500D03*
D03*
X3146000Y4950000D03*
D03*
X3400000D03*
D03*
X3530600Y2984500D03*
D03*
X5140600Y3900000D03*
D03*
X7100000Y2088000D03*
D03*
Y2342000D03*
D03*
Y2596000D03*
D03*
Y4288000D03*
D03*
Y4542000D03*
D03*
Y4796000D03*
D03*
X7862000Y2088000D03*
D03*
Y2342000D03*
D03*
Y2596000D03*
D03*
Y2850000D03*
D03*
Y4288000D03*
D03*
Y4542000D03*
D03*
Y4796000D03*
D03*
Y5050000D03*
D03*
X9500000Y3254000D03*
D03*
Y3000000D03*
D03*
G54D12*
X1150000Y4350000D03*
D03*
X1333500Y2984500D03*
D03*
X2540000D03*
D03*
X4150000Y3900000D03*
D03*
X7100000Y2850000D03*
D03*
Y5050000D03*
D03*
G54D13*
X550000Y4350000D03*
D03*
Y5366000D03*
D03*
X850000Y5850000D03*
D03*
X1866000D03*
D03*
X2500000Y1700000D03*
D03*
Y1250000D03*
D03*
X2540000Y2603500D03*
D03*
X2476500Y2159000D03*
D03*
X2534000Y3400000D03*
D03*
X2550000Y3900000D03*
D03*
X2534000Y5850000D03*
D03*
X3492500Y2159000D03*
D03*
X3516000Y1700000D03*
D03*
Y1250000D03*
D03*
X4150000Y2600000D03*
D03*
X3556000Y2603500D03*
D03*
X4134000Y3100000D03*
D03*
X3550000Y3400000D03*
D03*
X3566000Y3900000D03*
D03*
X3550000Y5850000D03*
D03*
X4650000Y4700000D03*
D03*
Y5716000D03*
D03*
X5143500Y952500D03*
D03*
Y1968500D03*
D03*
X5650000Y2200000D03*
D03*
Y2600000D03*
D03*
X5166000D03*
D03*
X5150000Y3100000D03*
D03*
X5600000Y4700000D03*
D03*
Y5716000D03*
D03*
X6200000Y4734000D03*
D03*
Y5750000D03*
D03*
X6985000Y1524000D03*
D03*
X6666000Y2200000D03*
D03*
Y2600000D03*
D03*
X8001000Y1524000D03*
D03*
G54D14*
G01X500000Y3246000D02*
X317500Y3063500D01*
Y2603500D01*
X952500Y1968500D01*
X1333500D01*
G01Y2730500D02*
X761500D01*
X500000Y2992000D01*
G01D02*
X825500Y3317500D01*
G01D02*
Y3937000D01*
G01X1912000Y4350000D02*
Y4150000D01*
X500000Y2738000D01*
G01X550000Y4350000D02*
X825500Y4074500D01*
G01D02*
Y3937000D01*
G01X500000Y3500000D02*
Y3754000D01*
X952500Y4206500D01*
Y4660500D01*
X1404000Y5112000D01*
G01D02*
X1626000Y5334000D01*
X7324000D01*
X7862000Y4796000D01*
G01X7100000Y4288000D02*
X6749000Y3937000D01*
X5905600D01*
X5492600Y4350000D01*
X1912000D01*
G01X7100000Y4288000D02*
X7251600Y4136400D01*
Y2239600D01*
X7100000Y2088000D01*
G01X7862000Y4796000D02*
X8191500Y4466500D01*
Y2925500D01*
X7862000Y2596000D01*
G54D15*
G01X550000Y4350000D02*
X687900D01*
G01X550000D02*
Y4487900D01*
G01Y5366000D02*
Y5550000D01*
X850000Y5850000D01*
G01X550000Y5366000D02*
X963000Y4953000D01*
X1333500D01*
X1658000Y4628500D01*
Y4350000D01*
G01X1202000Y1714500D02*
X1333500D01*
G01D02*
X1465000D01*
G01X1333500Y1329000D02*
Y1460500D01*
G01X1202000D02*
X1333500D01*
G01D02*
X1465000D01*
G01X1202000Y2476500D02*
X1333500D01*
G01D02*
X1465000D01*
G01X2095500D02*
X1841500D01*
X1333500Y2984500D01*
G01X1202000Y2730500D02*
X1333500D01*
G01D02*
X1465000D01*
G01X3400000Y4950000D02*
X3273400Y4823400D01*
X3093500D01*
X3027400Y4889500D01*
X1943500D01*
X1404000Y4350000D01*
G01X1658000Y5112000D02*
Y5642000D01*
X1866000Y5850000D01*
G01D02*
X2191500Y5524500D01*
X4458500D01*
X4650000Y5716000D01*
G01X2500000Y1250000D02*
X2306000D01*
X2095500Y1460500D01*
G01X2500000Y1700000D02*
X2395900Y1804100D01*
X2185100D01*
X2095500Y1714500D01*
G01X1964000Y1968500D02*
X2095500D01*
G01D02*
X2227000D01*
G01X2095500Y2222500D02*
X2222100D01*
X2285600Y2159000D01*
X2476500D01*
G01X2540000Y2603500D02*
X2222500D01*
X2095500Y2476500D01*
G01X2540000Y2984500D02*
X2413000Y3111500D01*
Y3279000D01*
X2534000Y3400000D01*
G01X2095500Y2984500D02*
X2540000D01*
G01X7862000Y4542000D02*
X6939500Y3619500D01*
X3429000D01*
X3148500Y3900000D01*
X2550000D01*
G01X2534000Y5850000D02*
X2794000Y5590000D01*
Y5080000D01*
X2550000Y4836000D01*
Y3900000D01*
G01X3399100Y2984500D02*
X3530600D01*
G01X3146000Y4818500D02*
Y4950000D01*
G01D02*
Y5081500D01*
G01X3014500Y4950000D02*
X3146000D01*
G01X4650000Y4700000D02*
X3650000D01*
X3400000Y4950000D01*
G01X3516000Y1700000D02*
X4875000D01*
X5143500Y1968500D01*
G01X3516000Y1250000D02*
X4846000D01*
X5143500Y952500D01*
G01X4150000Y2600000D02*
X4052400Y2697600D01*
X3650100D01*
X3556000Y2603500D01*
G01X4134000Y3100000D02*
X4254500Y2979500D01*
Y2704500D01*
X4150000Y2600000D01*
G01X3492500Y2159000D02*
X5334100D01*
X5588100Y1905000D01*
X6371000D01*
X6666000Y2200000D01*
G01X3530600Y2853000D02*
Y2984500D01*
G01D02*
Y3116000D01*
G01Y2984500D02*
X3662100D01*
G01X3566000Y3900000D02*
X3429000Y3763000D01*
Y3521000D01*
X3550000Y3400000D01*
G01X3566000Y3900000D02*
X4150000D01*
G01X5600000Y5716000D02*
X5232000Y6084000D01*
X3784000D01*
X3550000Y5850000D01*
G01X4650000Y5716000D02*
Y5319600D01*
X5269600Y4700000D01*
X5600000D01*
G01X5143500Y952500D02*
Y1693500D01*
X5650000Y2200000D01*
G01Y2462100D02*
Y2600000D01*
G01D02*
Y2737900D01*
G01X5512100Y2600000D02*
X5650000D01*
G01D02*
X5787900D01*
G01X5143500Y1968500D02*
X5270500Y2095500D01*
Y2495500D01*
X5166000Y2600000D01*
G01X5150000Y2962100D02*
Y3100000D01*
G01D02*
Y3237900D01*
G01X5012100Y3100000D02*
X5150000D01*
G01D02*
X5287900D01*
G01X5140600Y3768500D02*
Y3900000D01*
G01D02*
Y4031500D01*
G01X5009100Y3900000D02*
X5140600D01*
G01D02*
X5272100D01*
G01X7100000Y4796000D02*
X6520000D01*
X5600000Y5716000D01*
G01X7100000Y4542000D02*
X6392000D01*
X6200000Y4734000D01*
G01Y5612100D02*
Y5750000D01*
G01D02*
Y5887900D01*
G01X6062100Y5750000D02*
X6200000D01*
G01D02*
X6337900D01*
G01X6985000Y1524000D02*
X6858000Y1651000D01*
Y2354000D01*
X7100000Y2596000D01*
G01D02*
X6803000D01*
X6799000Y2600000D01*
X6666000D01*
G01X7100000Y2342000D02*
X6808000D01*
X6666000Y2200000D01*
G01X8001000Y1524000D02*
X7683500Y1841500D01*
Y2163500D01*
X7862000Y2342000D01*
G01D02*
X8501500D01*
X9159500Y3000000D01*
X9500000D01*
G01Y3254000D02*
Y3385500D01*
G01X9368500Y3254000D02*
X9500000D01*
M02*
