G04 ================== begin FILE IDENTIFICATION RECORD ==================*
G04 Layout Name:  C:/USERS/USER/DESKTOP/WORK/CADCAD3/allegro/DA_CONVERTOR.brd*
G04 Film Name:    DrillDraw*
G04 File Format:  Gerber RS274X*
G04 File Origin:  Cadence Allegro 17.2-P019*
G04 Origin Date:  Wed Jul 31 17:00:05 2019*
G04 *
G04 Layer:  MANUFACTURING/NCLEGEND-1-2*
G04 Layer:  BOARD GEOMETRY/OUTLINE*
G04 Layer:  BOARD GEOMETRY/DIMENSION*
G04 Layer:  BOARD GEOMETRY/DESIGN_OUTLINE*
G04 *
G04 Offset:    (0.000 0.000)*
G04 Mirror:    No*
G04 Mode:      Positive*
G04 Rotation:  0*
G04 FullContactRelief:  No*
G04 UndefLineWidth:     0.200*
G04 ================== end FILE IDENTIFICATION RECORD ====================*
%FSLAX25Y25*MOMM*%
%IR0*IPPOS*OFA0.00000B0.00000*MIA0B0*SFA1.00000B1.00000*%
%AMMACRO12*
1,1,.2,-.508,.3175*
20,1,.2,-.508,.3175,-.500282,.405713,0.0*
1,1,.2,-.500282,.405713*
20,1,.2,-.500282,.405713,-.477364,.491246,0.0*
1,1,.2,-.477364,.491246*
20,1,.2,-.477364,.491246,-.439941,.5715,0.0*
1,1,.2,-.439941,.5715*
20,1,.2,-.439941,.5715,-.389151,.644036,0.0*
1,1,.2,-.389151,.644036*
20,1,.2,-.389151,.644036,-.326536,.706651,0.0*
1,1,.2,-.326536,.706651*
20,1,.2,-.326536,.706651,-.254,.757441,0.0*
1,1,.2,-.254,.757441*
20,1,.2,-.254,.757441,-.173746,.794864,0.0*
1,1,.2,-.173746,.794864*
20,1,.2,-.173746,.794864,-.088213,.817782,0.0*
1,1,.2,-.088213,.817782*
20,1,.2,-.088213,.817782,0.0,.8255,0.0*
1,1,.2,0.0,.8255*
20,1,.2,0.0,.8255,.088213,.817782,0.0*
1,1,.2,.088213,.817782*
20,1,.2,.088213,.817782,.173746,.794864,0.0*
1,1,.2,.173746,.794864*
20,1,.2,.173746,.794864,.254,.757441,0.0*
1,1,.2,.254,.757441*
20,1,.2,.254,.757441,.326536,.706651,0.0*
1,1,.2,.326536,.706651*
20,1,.2,.326536,.706651,.389151,.644036,0.0*
1,1,.2,.389151,.644036*
20,1,.2,.389151,.644036,.439941,.5715,0.0*
1,1,.2,.439941,.5715*
20,1,.2,.439941,.5715,.477364,.491246,0.0*
1,1,.2,.477364,.491246*
20,1,.2,.477364,.491246,.500282,.405713,0.0*
1,1,.2,.500282,.405713*
20,1,.2,.500282,.405713,.508,.3175,0.0*
1,1,.2,.508,.3175*
20,1,.2,.508,.3175,.508,-.3175,0.0*
1,1,.2,.508,-.3175*
20,1,.2,.508,-.3175,.500282,-.405713,0.0*
1,1,.2,.500282,-.405713*
20,1,.2,.500282,-.405713,.477364,-.491246,0.0*
1,1,.2,.477364,-.491246*
20,1,.2,.477364,-.491246,.439941,-.5715,0.0*
1,1,.2,.439941,-.5715*
20,1,.2,.439941,-.5715,.389151,-.644036,0.0*
1,1,.2,.389151,-.644036*
20,1,.2,.389151,-.644036,.326536,-.706651,0.0*
1,1,.2,.326536,-.706651*
20,1,.2,.326536,-.706651,.254,-.757441,0.0*
1,1,.2,.254,-.757441*
20,1,.2,.254,-.757441,.173746,-.794864,0.0*
1,1,.2,.173746,-.794864*
20,1,.2,.173746,-.794864,.088213,-.817782,0.0*
1,1,.2,.088213,-.817782*
20,1,.2,.088213,-.817782,0.0,-.8255,0.0*
1,1,.2,0.0,-.8255*
20,1,.2,0.0,-.8255,-.088213,-.817782,0.0*
1,1,.2,-.088213,-.817782*
20,1,.2,-.088213,-.817782,-.173746,-.794864,0.0*
1,1,.2,-.173746,-.794864*
20,1,.2,-.173746,-.794864,-.254,-.757441,0.0*
1,1,.2,-.254,-.757441*
20,1,.2,-.254,-.757441,-.326536,-.706651,0.0*
1,1,.2,-.326536,-.706651*
20,1,.2,-.326536,-.706651,-.389151,-.644036,0.0*
1,1,.2,-.389151,-.644036*
20,1,.2,-.389151,-.644036,-.439941,-.5715,0.0*
1,1,.2,-.439941,-.5715*
20,1,.2,-.439941,-.5715,-.477364,-.491246,0.0*
1,1,.2,-.477364,-.491246*
20,1,.2,-.477364,-.491246,-.500282,-.405713,0.0*
1,1,.2,-.500282,-.405713*
20,1,.2,-.500282,-.405713,-.508,-.3175,0.0*
1,1,.2,-.508,-.3175*
20,1,.2,-.508,-.3175,-.508,.3175,0.0*
1,1,.2,-.508,.3175*
%
%ADD12MACRO12*%
%AMMACRO11*
1,1,.2,.635,0.0*
20,1,.2,.635,0.0,.3175,.549926,0.0*
1,1,.2,.3175,.549926*
20,1,.2,.3175,.549926,-.3175,.549926,0.0*
1,1,.2,-.3175,.549926*
20,1,.2,-.3175,.549926,-.635,0.0,0.0*
1,1,.2,-.635,0.0*
20,1,.2,-.635,0.0,-.3175,-.549926,0.0*
1,1,.2,-.3175,-.549926*
20,1,.2,-.3175,-.549926,.3175,-.549926,0.0*
1,1,.2,.3175,-.549926*
20,1,.2,.3175,-.549926,.635,0.0,0.0*
1,1,.2,.635,0.0*
%
%ADD11MACRO11*%
%AMMACRO10*
1,1,.2,-.666,-.952*
20,1,.2,-.666,-.952,.667,.953,0.0*
1,1,.2,.667,.953*
1,1,.2,-.666,.953*
20,1,.2,-.666,.953,.667,-.952,0.0*
1,1,.2,.667,-.952*
%
%ADD10MACRO10*%
%ADD13C,.2*%
G75*
%LPD*%
G75*
G54D10*
X500000Y500000D03*
Y6500000D03*
X1191500Y-3877500D03*
X9500000Y500000D03*
Y6500000D03*
G54D11*
X500000Y2738000D03*
Y2992000D03*
Y3246000D03*
Y3500000D03*
X1150000Y4350000D03*
Y5112000D03*
X1191500Y-2607500D03*
X1333500Y1460500D03*
Y1714500D03*
Y1968500D03*
Y2222500D03*
Y2476500D03*
Y2730500D03*
Y2984500D03*
X1912000Y4350000D03*
X1658000D03*
X1404000D03*
X1912000Y5112000D03*
X1658000D03*
X1404000D03*
X2095500Y1460500D03*
Y1714500D03*
Y1968500D03*
Y2222500D03*
Y2476500D03*
Y2730500D03*
Y2984500D03*
X2540000D03*
X3146000Y4950000D03*
X3400000D03*
X3530600Y2984500D03*
X4150000Y3900000D03*
X5140600D03*
X7100000Y2088000D03*
Y2342000D03*
Y2596000D03*
Y2850000D03*
Y4288000D03*
Y4542000D03*
Y4796000D03*
Y5050000D03*
X7862000Y2088000D03*
Y2342000D03*
Y2596000D03*
Y2850000D03*
Y4288000D03*
Y4542000D03*
Y4796000D03*
Y5050000D03*
X9500000Y3254000D03*
Y3000000D03*
G54D12*
X550000Y4350000D03*
Y5366000D03*
X850000Y5850000D03*
X1191500Y-3242500D03*
X1866000Y5850000D03*
X2500000Y1700000D03*
Y1250000D03*
X2540000Y2603500D03*
X2476500Y2159000D03*
X2534000Y3400000D03*
X2550000Y3900000D03*
X2534000Y5850000D03*
X3492500Y2159000D03*
X3516000Y1700000D03*
Y1250000D03*
X4150000Y2600000D03*
X3556000Y2603500D03*
X4134000Y3100000D03*
X3550000Y3400000D03*
X3566000Y3900000D03*
X3550000Y5850000D03*
X4650000Y4700000D03*
Y5716000D03*
X5143500Y952500D03*
Y1968500D03*
X5650000Y2200000D03*
Y2600000D03*
X5166000D03*
X5150000Y3100000D03*
X5600000Y4700000D03*
Y5716000D03*
X6200000Y4734000D03*
Y5750000D03*
X6985000Y1524000D03*
X6666000Y2200000D03*
Y2600000D03*
X8001000Y1524000D03*
G54D13*
G01X50000Y-4195000D02*
Y-370000D01*
X12645900D01*
Y-4195000D01*
X50000D01*
G01Y-3560000D02*
X12645900D01*
G01X50000Y-2925000D02*
X12645900D01*
G01X329400Y-2131200D02*
Y-1813700D01*
X479000D01*
G01X423900Y-1967200D02*
X329400D01*
G01X671900Y-1813700D02*
X766300D01*
G01X719100D02*
Y-2131200D01*
G01X671900D02*
X766300D01*
G01X1057600Y-1972500D02*
X1136400D01*
Y-2067700D01*
X1112700Y-2099500D01*
X1085200Y-2120600D01*
X1045800Y-2131200D01*
X1006400Y-2120600D01*
X978900Y-2099500D01*
X955300Y-2067700D01*
X939500Y-2030700D01*
X931600Y-1988300D01*
Y-1951300D01*
X939500Y-1919500D01*
X955300Y-1882500D01*
X978900Y-1850700D01*
X1002500Y-1829600D01*
X1034000Y-1813700D01*
X1061600D01*
X1093000Y-1824300D01*
X1116700Y-1845500D01*
G01X1262300Y-1813700D02*
Y-2041200D01*
X1278000Y-2088900D01*
X1309500Y-2120600D01*
X1348900Y-2131200D01*
X1388300Y-2120600D01*
X1419800Y-2088900D01*
X1435500Y-2041200D01*
Y-1813700D01*
G01X1585100Y-2131200D02*
Y-1813700D01*
X1683500D01*
X1715000Y-1829600D01*
X1734700Y-1850700D01*
X1742500Y-1893100D01*
X1734700Y-1935400D01*
X1711000Y-1961900D01*
X1683500Y-1977700D01*
X1585100D01*
G01X1683500D02*
X1742500Y-2131200D01*
G01X2057400D02*
X1900000D01*
Y-1813700D01*
X2057400D01*
G01X1994400Y-1967200D02*
X1900000D01*
G01X50000Y-2290000D02*
X12645900D01*
G01X50000Y-1655000D02*
X12645900D01*
G01X50000Y-1020000D02*
X12645900D01*
G01X0Y0D02*
Y7000000D01*
X10000000D01*
Y0D01*
X0D01*
G01Y7250000D02*
Y8050000D01*
G01X3938900Y7800000D02*
X0D01*
G01X400000Y7862500D02*
X0Y7800000D01*
X400000Y7737500D01*
Y7862500D01*
G01X2333000Y-1655000D02*
Y-4195000D01*
G01X1998400Y-1496200D02*
X2096800Y-1178700D01*
X2195200Y-1496200D01*
G01X2159800Y-1385100D02*
X2033800D01*
G01X2333000Y-1178700D02*
Y-1496200D01*
X2490400D01*
G01X2647900Y-1178700D02*
Y-1496200D01*
X2805300D01*
G01X3269800Y-1178700D02*
Y-1406200D01*
X3285500Y-1453900D01*
X3317000Y-1485600D01*
X3356400Y-1496200D01*
X3395800Y-1485600D01*
X3427300Y-1453900D01*
X3443000Y-1406200D01*
Y-1178700D01*
G01X3580800Y-1496200D02*
Y-1178700D01*
X3761800Y-1496200D01*
Y-1178700D01*
G01X3939000D02*
X4033400D01*
G01X3986200D02*
Y-1496200D01*
G01X3939000D02*
X4033400D01*
G01X4301100Y-1178700D02*
Y-1496200D01*
G01X4210600Y-1178700D02*
X4391600D01*
G01X4533300Y-1453900D02*
X4564800Y-1480300D01*
X4600300Y-1496200D01*
X4631700D01*
X4663200Y-1480300D01*
X4686900Y-1453900D01*
X4698700Y-1416800D01*
X4690800Y-1379800D01*
X4671100Y-1348000D01*
X4635700Y-1326900D01*
X4588400Y-1316300D01*
X4560900Y-1295100D01*
X4549100Y-1258100D01*
X4557000Y-1221000D01*
X4576600Y-1194600D01*
X4604200Y-1178700D01*
X4631700D01*
X4659300Y-1189300D01*
X4682900Y-1215700D01*
G01X5147400Y-1496200D02*
X5245800Y-1178700D01*
X5344200Y-1496200D01*
G01X5308800Y-1385100D02*
X5182800D01*
G01X5482000Y-1496200D02*
Y-1178700D01*
X5580400D01*
X5611900Y-1194600D01*
X5631600Y-1215700D01*
X5639400Y-1258100D01*
X5631600Y-1300400D01*
X5607900Y-1326900D01*
X5580400Y-1342700D01*
X5482000D01*
G01X5580400D02*
X5639400Y-1496200D01*
G01X5954300D02*
X5796900D01*
Y-1178700D01*
X5954300D01*
G01X5891300Y-1332200D02*
X5796900D01*
G01X6458200Y-1178700D02*
X6552600D01*
G01X6505400D02*
Y-1496200D01*
G01X6458200D02*
X6552600D01*
G01X6729800D02*
Y-1178700D01*
X6910800Y-1496200D01*
Y-1178700D01*
G01X7347700Y-1496200D02*
Y-1178700D01*
X7450100Y-1443300D01*
X7552500Y-1178700D01*
Y-1496200D01*
G01X7717800Y-1178700D02*
X7812200D01*
G01X7765000D02*
Y-1496200D01*
G01X7717800D02*
X7812200D01*
G01X8001200Y-1178700D02*
Y-1496200D01*
X8158600D01*
G01X8316100Y-1178700D02*
Y-1496200D01*
X8473500D01*
G01X8662500Y-1178700D02*
X8756900D01*
G01X8709700D02*
Y-1496200D01*
G01X8662500D02*
X8756900D01*
G01X8922200D02*
Y-1178700D01*
X9024600Y-1443300D01*
X9127000Y-1178700D01*
Y-1496200D01*
G01X9418200D02*
X9260800D01*
Y-1178700D01*
X9418200D01*
G01X9355200Y-1332200D02*
X9260800D01*
G01X9654400Y-1178700D02*
Y-1496200D01*
G01X9563900Y-1178700D02*
X9744900D01*
G01X10048000Y-1496200D02*
X9890600D01*
Y-1178700D01*
X10048000D01*
G01X9985000Y-1332200D02*
X9890600D01*
G01X10205500Y-1496200D02*
Y-1178700D01*
X10303900D01*
X10335400Y-1194600D01*
X10355100Y-1215700D01*
X10362900Y-1258100D01*
X10355100Y-1300400D01*
X10331400Y-1326900D01*
X10303900Y-1342700D01*
X10205500D01*
G01X10303900D02*
X10362900Y-1496200D01*
G01X10516400Y-1453900D02*
X10547900Y-1480300D01*
X10583400Y-1496200D01*
X10614800D01*
X10646300Y-1480300D01*
X10670000Y-1453900D01*
X10681800Y-1416800D01*
X10673900Y-1379800D01*
X10654200Y-1348000D01*
X10618800Y-1326900D01*
X10571500Y-1316300D01*
X10544000Y-1295100D01*
X10532200Y-1258100D01*
X10540100Y-1221000D01*
X10559700Y-1194600D01*
X10587300Y-1178700D01*
X10614800D01*
X10642400Y-1189300D01*
X10666000Y-1215700D01*
G01X2325100Y-846200D02*
Y-528700D01*
X2403800D01*
X2435300Y-544600D01*
X2458900Y-565700D01*
X2478600Y-597500D01*
X2494400Y-634500D01*
X2498300Y-687500D01*
X2494400Y-740400D01*
X2478600Y-777400D01*
X2458900Y-809200D01*
X2435300Y-830300D01*
X2403800Y-846200D01*
X2325100D01*
G01X2647900D02*
Y-528700D01*
X2746300D01*
X2777800Y-544600D01*
X2797500Y-565700D01*
X2805300Y-608100D01*
X2797500Y-650400D01*
X2773800Y-676900D01*
X2746300Y-692700D01*
X2647900D01*
G01X2746300D02*
X2805300Y-846200D01*
G01X2994300Y-528700D02*
X3088700D01*
G01X3041500D02*
Y-846200D01*
G01X2994300D02*
X3088700D01*
G01X3277700Y-528700D02*
Y-846200D01*
X3435100D01*
G01X3592600Y-528700D02*
Y-846200D01*
X3750000D01*
G01X4387700Y-555200D02*
X4364100Y-539300D01*
X4336500Y-528700D01*
X4305000D01*
X4269600Y-544600D01*
X4242100Y-571000D01*
X4222400Y-602800D01*
X4206600Y-655700D01*
X4202700Y-703300D01*
X4210600Y-751000D01*
X4222400Y-782700D01*
X4246000Y-814500D01*
X4273500Y-835600D01*
X4301100Y-846200D01*
X4328700D01*
X4356200Y-835600D01*
X4379800Y-819700D01*
X4399500Y-798600D01*
G01X4533300Y-846200D02*
Y-528700D01*
G01X4698700D02*
Y-846200D01*
G01Y-687500D02*
X4533300D01*
G01X4832500Y-846200D02*
X4930900Y-528700D01*
X5029300Y-846200D01*
G01X4993900Y-735100D02*
X4867900D01*
G01X5167100Y-846200D02*
Y-528700D01*
X5265500D01*
X5297000Y-544600D01*
X5316700Y-565700D01*
X5324500Y-608100D01*
X5316700Y-650400D01*
X5293000Y-676900D01*
X5265500Y-692700D01*
X5167100D01*
G01X5265500D02*
X5324500Y-846200D01*
G01X5560700Y-528700D02*
Y-846200D01*
G01X5470200Y-528700D02*
X5651200D01*
G01X5875600Y-856800D02*
X5867700Y-851500D01*
Y-840900D01*
X5875600Y-835600D01*
X5883500Y-840900D01*
Y-851500D01*
X5875600Y-856800D01*
G01Y-713900D02*
X5867700Y-708600D01*
Y-698000D01*
X5875600Y-692700D01*
X5883500Y-698000D01*
Y-708600D01*
X5875600Y-713900D01*
G01X6505400Y-528700D02*
Y-846200D01*
G01X6414900Y-528700D02*
X6595900D01*
G01X6820300Y-846200D02*
X6788800Y-840900D01*
X6761300Y-819700D01*
X6737600Y-788000D01*
X6721900Y-751000D01*
X6714000Y-708600D01*
Y-666300D01*
X6721900Y-623900D01*
X6737600Y-586900D01*
X6761300Y-555200D01*
X6788800Y-534000D01*
X6820300Y-528700D01*
X6851800Y-534000D01*
X6879300Y-555200D01*
X6903000Y-586900D01*
X6918700Y-623900D01*
X6926600Y-666300D01*
Y-708600D01*
X6918700Y-751000D01*
X6903000Y-788000D01*
X6879300Y-819700D01*
X6851800Y-840900D01*
X6820300Y-846200D01*
G01X7056500D02*
Y-528700D01*
X7150900D01*
X7182400Y-544600D01*
X7206100Y-581600D01*
X7213900Y-623900D01*
X7206100Y-666300D01*
X7186400Y-698000D01*
X7150900Y-713900D01*
X7056500D01*
G01X7765000Y-528700D02*
Y-846200D01*
G01X7709900Y-634500D02*
X7820100D01*
G01X8079900Y-846200D02*
X8056300Y-840900D01*
X8032700Y-819700D01*
X8016900Y-782700D01*
X8009000Y-740400D01*
X8016900Y-698000D01*
X8032700Y-661000D01*
X8056300Y-639800D01*
X8079900Y-634500D01*
X8103500Y-639800D01*
X8127100Y-661000D01*
X8142900Y-698000D01*
X8146800Y-740400D01*
X8142900Y-782700D01*
X8127100Y-819700D01*
X8103500Y-840900D01*
X8079900Y-846200D01*
G01X8741200Y-676900D02*
X8756900Y-661000D01*
X8768700Y-634500D01*
X8776600Y-597500D01*
X8768700Y-565700D01*
X8753000Y-544600D01*
X8725400Y-528700D01*
X8619200D01*
Y-846200D01*
X8749100D01*
X8776600Y-825000D01*
X8792400Y-793300D01*
X8800200Y-756200D01*
X8792400Y-719200D01*
X8768700Y-687500D01*
X8741200Y-676900D01*
X8619200D01*
G01X9024600Y-846200D02*
X8993100Y-840900D01*
X8965600Y-819700D01*
X8941900Y-788000D01*
X8926200Y-751000D01*
X8918300Y-708600D01*
Y-666300D01*
X8926200Y-623900D01*
X8941900Y-586900D01*
X8965600Y-555200D01*
X8993100Y-534000D01*
X9024600Y-528700D01*
X9056100Y-534000D01*
X9083600Y-555200D01*
X9107300Y-586900D01*
X9123000Y-623900D01*
X9130900Y-666300D01*
Y-708600D01*
X9123000Y-751000D01*
X9107300Y-788000D01*
X9083600Y-819700D01*
X9056100Y-840900D01*
X9024600Y-846200D01*
G01X9339500Y-528700D02*
Y-846200D01*
G01X9249000Y-528700D02*
X9430000D01*
G01X9654400D02*
Y-846200D01*
G01X9563900Y-528700D02*
X9744900D01*
G01X9969300Y-846200D02*
X9937800Y-840900D01*
X9910300Y-819700D01*
X9886600Y-788000D01*
X9870900Y-751000D01*
X9863000Y-708600D01*
Y-666300D01*
X9870900Y-623900D01*
X9886600Y-586900D01*
X9910300Y-555200D01*
X9937800Y-534000D01*
X9969300Y-528700D01*
X10000800Y-534000D01*
X10028300Y-555200D01*
X10052000Y-586900D01*
X10067700Y-623900D01*
X10075600Y-666300D01*
Y-708600D01*
X10067700Y-751000D01*
X10052000Y-788000D01*
X10028300Y-819700D01*
X10000800Y-840900D01*
X9969300Y-846200D01*
G01X10181800D02*
Y-528700D01*
X10284200Y-793300D01*
X10386600Y-528700D01*
Y-846200D01*
G01X2927300Y-2131200D02*
Y-1813700D01*
X3076900D01*
G01X3021800Y-1967200D02*
X2927300D01*
G01X3269800Y-1813700D02*
X3364200D01*
G01X3317000D02*
Y-2131200D01*
G01X3269800D02*
X3364200D01*
G01X3541400D02*
Y-1813700D01*
X3722400Y-2131200D01*
Y-1813700D01*
G01X3899600D02*
X3994000D01*
G01X3946800D02*
Y-2131200D01*
G01X3899600D02*
X3994000D01*
G01X4179000Y-2088900D02*
X4210500Y-2115300D01*
X4246000Y-2131200D01*
X4277400D01*
X4308900Y-2115300D01*
X4332600Y-2088900D01*
X4344400Y-2051800D01*
X4336500Y-2014800D01*
X4316800Y-1983000D01*
X4281400Y-1961900D01*
X4234100Y-1951300D01*
X4206600Y-1930100D01*
X4194800Y-1893100D01*
X4202700Y-1856000D01*
X4222300Y-1829600D01*
X4249900Y-1813700D01*
X4277400D01*
X4305000Y-1824300D01*
X4328600Y-1850700D01*
G01X4493900Y-2131200D02*
Y-1813700D01*
G01X4659300D02*
Y-2131200D01*
G01Y-1972500D02*
X4493900D01*
G01X4970200Y-2131200D02*
X4812800D01*
Y-1813700D01*
X4970200D01*
G01X4907200Y-1967200D02*
X4812800D01*
G01X5119800Y-2131200D02*
Y-1813700D01*
X5198500D01*
X5230000Y-1829600D01*
X5253600Y-1850700D01*
X5273300Y-1882500D01*
X5289100Y-1919500D01*
X5293000Y-1972500D01*
X5289100Y-2025400D01*
X5273300Y-2062400D01*
X5253600Y-2094200D01*
X5230000Y-2115300D01*
X5198500Y-2131200D01*
X5119800D01*
G01X5403200Y-2237000D02*
X5639400D01*
G01X5753500Y-2088900D02*
X5785000Y-2115300D01*
X5820500Y-2131200D01*
X5851900D01*
X5883400Y-2115300D01*
X5907100Y-2088900D01*
X5918900Y-2051800D01*
X5911000Y-2014800D01*
X5891300Y-1983000D01*
X5855900Y-1961900D01*
X5808600Y-1951300D01*
X5781100Y-1930100D01*
X5769300Y-1893100D01*
X5777200Y-1856000D01*
X5796800Y-1829600D01*
X5824400Y-1813700D01*
X5851900D01*
X5879500Y-1824300D01*
X5903100Y-1850700D01*
G01X6103900Y-1813700D02*
X6198300D01*
G01X6151100D02*
Y-2131200D01*
G01X6103900D02*
X6198300D01*
G01X6391200Y-1813700D02*
X6540800D01*
X6391200Y-2131200D01*
X6540800D01*
G01X6859600D02*
X6702200D01*
Y-1813700D01*
X6859600D01*
G01X6796600Y-1967200D02*
X6702200D01*
G01X4261700Y-3401200D02*
Y-3083700D01*
X4214500Y-3147200D01*
G01Y-3401200D02*
X4308900D01*
G01X4576600Y-3411800D02*
X4568700Y-3406500D01*
Y-3395900D01*
X4576600Y-3390600D01*
X4584500Y-3395900D01*
Y-3406500D01*
X4576600Y-3411800D01*
G01X4891500Y-3083700D02*
X4860000Y-3094300D01*
X4836400Y-3120700D01*
X4820600Y-3152500D01*
X4808800Y-3194800D01*
X4804900Y-3242500D01*
X4808800Y-3290100D01*
X4820600Y-3332400D01*
X4836400Y-3364200D01*
X4860000Y-3390600D01*
X4891500Y-3401200D01*
X4923000Y-3390600D01*
X4946600Y-3364200D01*
X4962400Y-3332400D01*
X4974200Y-3290100D01*
X4978100Y-3242500D01*
X4974200Y-3194800D01*
X4962400Y-3152500D01*
X4946600Y-3120700D01*
X4923000Y-3094300D01*
X4891500Y-3083700D01*
G01X5131600Y-3268900D02*
X5159200Y-3231900D01*
X5182800Y-3210700D01*
X5214300Y-3200100D01*
X5241800Y-3210700D01*
X5261500Y-3231900D01*
X5277300Y-3263600D01*
X5281200Y-3300700D01*
X5277300Y-3332400D01*
X5261500Y-3364200D01*
X5237900Y-3390600D01*
X5210300Y-3401200D01*
X5178800Y-3390600D01*
X5151300Y-3358900D01*
X5135500Y-3311200D01*
X5131600Y-3258300D01*
X5139500Y-3189500D01*
X5151300Y-3152500D01*
X5171000Y-3115500D01*
X5198500Y-3089000D01*
X5226100Y-3083700D01*
X5253600Y-3094300D01*
X5273300Y-3120700D01*
G01X5513400Y-3401200D02*
X5521300Y-3332400D01*
X5533100Y-3274200D01*
X5548900Y-3221300D01*
X5568500Y-3163100D01*
X5600000Y-3083700D01*
X5442600D01*
G01X4175100Y-3972700D02*
X4198700Y-4009700D01*
X4230200Y-4030900D01*
X4265600Y-4036200D01*
X4297100Y-4030900D01*
X4328600Y-4004500D01*
X4348300Y-3972700D01*
X4352200Y-3941000D01*
X4344400Y-3903900D01*
X4316800Y-3877500D01*
X4289300Y-3866900D01*
X4253800D01*
G01X4289300D02*
X4312900Y-3851000D01*
X4332600Y-3824500D01*
X4340400Y-3792800D01*
X4332600Y-3761000D01*
X4312900Y-3734600D01*
X4277400Y-3718700D01*
X4242000Y-3724000D01*
X4206600Y-3745200D01*
G01X4576600Y-4046800D02*
X4568700Y-4041500D01*
Y-4030900D01*
X4576600Y-4025600D01*
X4584500Y-4030900D01*
Y-4041500D01*
X4576600Y-4046800D01*
G01X4891500Y-4036200D02*
Y-3718700D01*
X4844300Y-3782200D01*
G01Y-4036200D02*
X4938700D01*
G01X5198500D02*
X5206400Y-3967400D01*
X5218200Y-3909200D01*
X5234000Y-3856300D01*
X5253600Y-3798100D01*
X5285100Y-3718700D01*
X5127700D01*
G01X5434700Y-3988600D02*
X5458300Y-4015000D01*
X5485900Y-4030900D01*
X5521300Y-4036200D01*
X5556700Y-4025600D01*
X5584300Y-4004500D01*
X5604000Y-3967400D01*
X5607900Y-3925100D01*
X5600000Y-3882700D01*
X5580300Y-3856300D01*
X5552800Y-3835100D01*
X5525200Y-3829800D01*
X5497700Y-3835100D01*
X5462300Y-3856300D01*
X5474100Y-3718700D01*
X5580300D01*
G01X4261700Y-2448700D02*
X4230200Y-2459300D01*
X4206600Y-2485700D01*
X4190800Y-2517500D01*
X4179000Y-2559800D01*
X4175100Y-2607500D01*
X4179000Y-2655100D01*
X4190800Y-2697400D01*
X4206600Y-2729200D01*
X4230200Y-2755600D01*
X4261700Y-2766200D01*
X4293200Y-2755600D01*
X4316800Y-2729200D01*
X4332600Y-2697400D01*
X4344400Y-2655100D01*
X4348300Y-2607500D01*
X4344400Y-2559800D01*
X4332600Y-2517500D01*
X4316800Y-2485700D01*
X4293200Y-2459300D01*
X4261700Y-2448700D01*
G01X4576600Y-2776800D02*
X4568700Y-2771500D01*
Y-2760900D01*
X4576600Y-2755600D01*
X4584500Y-2760900D01*
Y-2771500D01*
X4576600Y-2776800D01*
G01X4824600Y-2729200D02*
X4852100Y-2755600D01*
X4883600Y-2766200D01*
X4915100Y-2755600D01*
X4942700Y-2723900D01*
X4962400Y-2676200D01*
X4970200Y-2628600D01*
Y-2570400D01*
X4962400Y-2522800D01*
X4942700Y-2480500D01*
X4919100Y-2459300D01*
X4891500Y-2448700D01*
X4860000Y-2459300D01*
X4836400Y-2480500D01*
X4820600Y-2512200D01*
X4812800Y-2554500D01*
X4820600Y-2591600D01*
X4840300Y-2628600D01*
X4863900Y-2649800D01*
X4891500Y-2655100D01*
X4923000Y-2644500D01*
X4946600Y-2618000D01*
X4970200Y-2570400D01*
G01X5206400Y-2766200D02*
Y-2448700D01*
X5159200Y-2512200D01*
G01Y-2766200D02*
X5253600D01*
G01X5568500D02*
Y-2448700D01*
X5422900Y-2676200D01*
X5619700D01*
G01X4295100Y7641200D02*
Y7958700D01*
X4247900Y7895200D01*
G01Y7641200D02*
X4342300D01*
G01X4610000Y7958700D02*
X4578500Y7948100D01*
X4554900Y7921700D01*
X4539100Y7889900D01*
X4527300Y7847600D01*
X4523400Y7799900D01*
X4527300Y7752300D01*
X4539100Y7710000D01*
X4554900Y7678200D01*
X4578500Y7651800D01*
X4610000Y7641200D01*
X4641500Y7651800D01*
X4665100Y7678200D01*
X4680900Y7710000D01*
X4692700Y7752300D01*
X4696600Y7799900D01*
X4692700Y7847600D01*
X4680900Y7889900D01*
X4665100Y7921700D01*
X4641500Y7948100D01*
X4610000Y7958700D01*
G01X4924900D02*
X4893400Y7948100D01*
X4869800Y7921700D01*
X4854000Y7889900D01*
X4842200Y7847600D01*
X4838300Y7799900D01*
X4842200Y7752300D01*
X4854000Y7710000D01*
X4869800Y7678200D01*
X4893400Y7651800D01*
X4924900Y7641200D01*
X4956400Y7651800D01*
X4980000Y7678200D01*
X4995800Y7710000D01*
X5007600Y7752300D01*
X5011500Y7799900D01*
X5007600Y7847600D01*
X4995800Y7889900D01*
X4980000Y7921700D01*
X4956400Y7948100D01*
X4924900Y7958700D01*
G01X5281100Y7800000D02*
X10000000D01*
G01X7556400Y-4036200D02*
Y-3718700D01*
X7737400Y-4036200D01*
Y-3718700D01*
G01X7961800Y-4036200D02*
X7930300Y-4030900D01*
X7902800Y-4009700D01*
X7879100Y-3978000D01*
X7863400Y-3941000D01*
X7855500Y-3898600D01*
Y-3856300D01*
X7863400Y-3813900D01*
X7879100Y-3776900D01*
X7902800Y-3745200D01*
X7930300Y-3724000D01*
X7961800Y-3718700D01*
X7993300Y-3724000D01*
X8020800Y-3745200D01*
X8044500Y-3776900D01*
X8060200Y-3813900D01*
X8068100Y-3856300D01*
Y-3898600D01*
X8060200Y-3941000D01*
X8044500Y-3978000D01*
X8020800Y-4009700D01*
X7993300Y-4030900D01*
X7961800Y-4036200D01*
G01X8186200D02*
Y-3718700D01*
X8367200Y-4036200D01*
Y-3718700D01*
G01X8540400Y-3930400D02*
X8642800D01*
G01X8827800Y-4036200D02*
Y-3718700D01*
X8922200D01*
X8953700Y-3734600D01*
X8977400Y-3771600D01*
X8985200Y-3813900D01*
X8977400Y-3856300D01*
X8957700Y-3888000D01*
X8922200Y-3903900D01*
X8827800D01*
G01X9142700Y-3718700D02*
Y-4036200D01*
X9300100D01*
G01X9437900D02*
X9536300Y-3718700D01*
X9634700Y-4036200D01*
G01X9599300Y-3925100D02*
X9473300D01*
G01X9851200Y-3718700D02*
Y-4036200D01*
G01X9760700Y-3718700D02*
X9941700D01*
G01X10244800Y-4036200D02*
X10087400D01*
Y-3718700D01*
X10244800D01*
G01X10181800Y-3872200D02*
X10087400D01*
G01X10394400Y-4036200D02*
Y-3718700D01*
X10473100D01*
X10504600Y-3734600D01*
X10528200Y-3755700D01*
X10547900Y-3787500D01*
X10563700Y-3824500D01*
X10567600Y-3877500D01*
X10563700Y-3930400D01*
X10547900Y-3967400D01*
X10528200Y-3999200D01*
X10504600Y-4020300D01*
X10473100Y-4036200D01*
X10394400D01*
G01X7450100Y-1655000D02*
Y-4195000D01*
G01X8198000Y-3401200D02*
Y-3083700D01*
X8292400D01*
X8323900Y-3099600D01*
X8347600Y-3136600D01*
X8355400Y-3178900D01*
X8347600Y-3221300D01*
X8327900Y-3253000D01*
X8292400Y-3268900D01*
X8198000D01*
G01X8512900Y-3083700D02*
Y-3401200D01*
X8670300D01*
G01X8808100D02*
X8906500Y-3083700D01*
X9004900Y-3401200D01*
G01X8969500Y-3290100D02*
X8843500D01*
G01X9221400Y-3083700D02*
Y-3401200D01*
G01X9130900Y-3083700D02*
X9311900D01*
G01X9615000Y-3401200D02*
X9457600D01*
Y-3083700D01*
X9615000D01*
G01X9552000Y-3237200D02*
X9457600D01*
G01X9764600Y-3401200D02*
Y-3083700D01*
X9843300D01*
X9874800Y-3099600D01*
X9898400Y-3120700D01*
X9918100Y-3152500D01*
X9933900Y-3189500D01*
X9937800Y-3242500D01*
X9933900Y-3295400D01*
X9918100Y-3332400D01*
X9898400Y-3364200D01*
X9874800Y-3385300D01*
X9843300Y-3401200D01*
X9764600D01*
G01X8198000Y-2766200D02*
Y-2448700D01*
X8292400D01*
X8323900Y-2464600D01*
X8347600Y-2501600D01*
X8355400Y-2543900D01*
X8347600Y-2586300D01*
X8327900Y-2618000D01*
X8292400Y-2633900D01*
X8198000D01*
G01X8512900Y-2448700D02*
Y-2766200D01*
X8670300D01*
G01X8808100D02*
X8906500Y-2448700D01*
X9004900Y-2766200D01*
G01X8969500Y-2655100D02*
X8843500D01*
G01X9221400Y-2448700D02*
Y-2766200D01*
G01X9130900Y-2448700D02*
X9311900D01*
G01X9615000Y-2766200D02*
X9457600D01*
Y-2448700D01*
X9615000D01*
G01X9552000Y-2602200D02*
X9457600D01*
G01X9764600Y-2766200D02*
Y-2448700D01*
X9843300D01*
X9874800Y-2464600D01*
X9898400Y-2485700D01*
X9918100Y-2517500D01*
X9933900Y-2554500D01*
X9937800Y-2607500D01*
X9933900Y-2660400D01*
X9918100Y-2697400D01*
X9898400Y-2729200D01*
X9874800Y-2750300D01*
X9843300Y-2766200D01*
X9764600D01*
G01X8198000Y-2131200D02*
Y-1813700D01*
X8292400D01*
X8323900Y-1829600D01*
X8347600Y-1866600D01*
X8355400Y-1908900D01*
X8347600Y-1951300D01*
X8327900Y-1983000D01*
X8292400Y-1998900D01*
X8198000D01*
G01X8512900Y-1813700D02*
Y-2131200D01*
X8670300D01*
G01X8808100D02*
X8906500Y-1813700D01*
X9004900Y-2131200D01*
G01X8969500Y-2020100D02*
X8843500D01*
G01X9221400Y-1813700D02*
Y-2131200D01*
G01X9130900Y-1813700D02*
X9311900D01*
G01X9615000Y-2131200D02*
X9457600D01*
Y-1813700D01*
X9615000D01*
G01X9552000Y-1967200D02*
X9457600D01*
G01X9764600Y-2131200D02*
Y-1813700D01*
X9843300D01*
X9874800Y-1829600D01*
X9898400Y-1850700D01*
X9918100Y-1882500D01*
X9933900Y-1919500D01*
X9937800Y-1972500D01*
X9933900Y-2025400D01*
X9918100Y-2062400D01*
X9898400Y-2094200D01*
X9874800Y-2115300D01*
X9843300Y-2131200D01*
X9764600D01*
G01X10000000Y7250000D02*
Y8050000D01*
G01X9600000Y7737500D02*
X10000000Y7800000D01*
X9600000Y7862500D01*
Y7737500D01*
G01X10677800Y-1655000D02*
Y-4195000D01*
G01X10250000Y0D02*
X11260000D01*
G01X10947500Y400000D02*
X11010000Y0D01*
X11072500Y400000D01*
X10947500D01*
G01X10844600Y3561200D02*
X10852500Y3630000D01*
X10864300Y3688200D01*
X10880100Y3741100D01*
X10899700Y3799300D01*
X10931200Y3878700D01*
X10773800D01*
G01X11167400D02*
X11135900Y3868100D01*
X11112300Y3841700D01*
X11096500Y3809900D01*
X11084700Y3767600D01*
X11080800Y3719900D01*
X11084700Y3672300D01*
X11096500Y3630000D01*
X11112300Y3598200D01*
X11135900Y3571800D01*
X11167400Y3561200D01*
X11198900Y3571800D01*
X11222500Y3598200D01*
X11238300Y3630000D01*
X11250100Y3672300D01*
X11254000Y3719900D01*
X11250100Y3767600D01*
X11238300Y3809900D01*
X11222500Y3841700D01*
X11198900Y3868100D01*
X11167400Y3878700D01*
G01X10250000Y7000000D02*
X11260000D01*
G01X11072500Y6600000D02*
X11010000Y7000000D01*
X10947500Y6600000D01*
X11072500D01*
G01X11417800Y-3337700D02*
X11441400Y-3374700D01*
X11472900Y-3395900D01*
X11508300Y-3401200D01*
X11539800Y-3395900D01*
X11571300Y-3369500D01*
X11591000Y-3337700D01*
X11594900Y-3306000D01*
X11587100Y-3268900D01*
X11559500Y-3242500D01*
X11532000Y-3231900D01*
X11496500D01*
G01X11532000D02*
X11555600Y-3216000D01*
X11575300Y-3189500D01*
X11583100Y-3157800D01*
X11575300Y-3126000D01*
X11555600Y-3099600D01*
X11520100Y-3083700D01*
X11484700Y-3089000D01*
X11449300Y-3110200D01*
G01X11744500Y-3268900D02*
X11772100Y-3231900D01*
X11795700Y-3210700D01*
X11827200Y-3200100D01*
X11854700Y-3210700D01*
X11874400Y-3231900D01*
X11890200Y-3263600D01*
X11894100Y-3300700D01*
X11890200Y-3332400D01*
X11874400Y-3364200D01*
X11850800Y-3390600D01*
X11823200Y-3401200D01*
X11791700Y-3390600D01*
X11764200Y-3358900D01*
X11748400Y-3311200D01*
X11744500Y-3258300D01*
X11752400Y-3189500D01*
X11764200Y-3152500D01*
X11783900Y-3115500D01*
X11811400Y-3089000D01*
X11839000Y-3083700D01*
X11866500Y-3094300D01*
X11886200Y-3120700D01*
G01X11709100Y-4036200D02*
Y-3718700D01*
X11563500Y-3946200D01*
X11760300D01*
G01X11417800Y-2718600D02*
X11441400Y-2745000D01*
X11469000Y-2760900D01*
X11504400Y-2766200D01*
X11539800Y-2755600D01*
X11567400Y-2734500D01*
X11587100Y-2697400D01*
X11591000Y-2655100D01*
X11583100Y-2612700D01*
X11563400Y-2586300D01*
X11535900Y-2565100D01*
X11508300Y-2559800D01*
X11480800Y-2565100D01*
X11445400Y-2586300D01*
X11457200Y-2448700D01*
X11563400D01*
G01X11819300D02*
X11787800Y-2459300D01*
X11764200Y-2485700D01*
X11748400Y-2517500D01*
X11736600Y-2559800D01*
X11732700Y-2607500D01*
X11736600Y-2655100D01*
X11748400Y-2697400D01*
X11764200Y-2729200D01*
X11787800Y-2755600D01*
X11819300Y-2766200D01*
X11850800Y-2755600D01*
X11874400Y-2729200D01*
X11890200Y-2697400D01*
X11902000Y-2655100D01*
X11905900Y-2607500D01*
X11902000Y-2559800D01*
X11890200Y-2517500D01*
X11874400Y-2485700D01*
X11850800Y-2459300D01*
X11819300Y-2448700D01*
G01X11347000Y-2131200D02*
X11315500Y-2125900D01*
X11288000Y-2104700D01*
X11264300Y-2073000D01*
X11248600Y-2036000D01*
X11240700Y-1993600D01*
Y-1951300D01*
X11248600Y-1908900D01*
X11264300Y-1871900D01*
X11288000Y-1840200D01*
X11315500Y-1819000D01*
X11347000Y-1813700D01*
X11378500Y-1819000D01*
X11406000Y-1840200D01*
X11429700Y-1871900D01*
X11445400Y-1908900D01*
X11453300Y-1951300D01*
Y-1993600D01*
X11445400Y-2036000D01*
X11429700Y-2073000D01*
X11406000Y-2104700D01*
X11378500Y-2125900D01*
X11347000Y-2131200D01*
G01X11378500Y-2046500D02*
X11425700Y-2131200D01*
G01X11661900Y-1813700D02*
Y-2131200D01*
G01X11571400Y-1813700D02*
X11752400D01*
G01X11976800Y-2131200D02*
Y-1988300D01*
X11898100Y-1813700D01*
G01X12055500D02*
X11976800Y-1988300D01*
G01X11010000Y3323200D02*
Y0D01*
G01Y4116800D02*
Y7000000D01*
M02*
