G04 ================== begin FILE IDENTIFICATION RECORD ==================*
G04 Layout Name:  C:/USERS/USER/DESKTOP/WORK/CADCAD3/allegro/DA_CONVERTOR.brd*
G04 Film Name:    SolderT*
G04 File Format:  Gerber RS274X*
G04 File Origin:  Cadence Allegro 17.2-P019*
G04 Origin Date:  Wed Jul 31 17:00:05 2019*
G04 *
G04 Layer:  VIA CLASS/SOLDERMASK_TOP*
G04 Layer:  PIN/SOLDERMASK_TOP*
G04 Layer:  PACKAGE GEOMETRY/SOLDERMASK_TOP*
G04 Layer:  BOARD GEOMETRY/SOLDERMASK_TOP*
G04 *
G04 Offset:    (0.000 0.000)*
G04 Mirror:    No*
G04 Mode:      Positive*
G04 Rotation:  0*
G04 FullContactRelief:  No*
G04 UndefLineWidth:     0.000*
G04 ================== end FILE IDENTIFICATION RECORD ====================*
%FSLAX25Y25*MOMM*%
%IR0*IPPOS*OFA0.00000B0.00000*MIA0B0*SFA1.00000B1.00000*%
%ADD13C,2.032*%
%ADD11C,1.905*%
%ADD10C,3.683*%
%ADD12R,1.905X1.905*%
%LPD*%
G75*
G54D10*
X500000Y500000D03*
Y6500000D03*
X9500000Y500000D03*
Y6500000D03*
G54D11*
X500000Y2738000D03*
Y2992000D03*
Y3246000D03*
Y3500000D03*
X1150000Y5112000D03*
X1333500Y1460500D03*
Y1714500D03*
Y1968500D03*
Y2222500D03*
Y2476500D03*
Y2730500D03*
X1912000Y4350000D03*
X1658000D03*
X1404000D03*
X1912000Y5112000D03*
X1658000D03*
X1404000D03*
X2095500Y1460500D03*
Y1714500D03*
Y1968500D03*
Y2222500D03*
Y2476500D03*
Y2730500D03*
Y2984500D03*
X3146000Y4950000D03*
X3400000D03*
X3530600Y2984500D03*
X5140600Y3900000D03*
X7100000Y2088000D03*
Y2342000D03*
Y2596000D03*
Y4288000D03*
Y4542000D03*
Y4796000D03*
X7862000Y2088000D03*
Y2342000D03*
Y2596000D03*
Y2850000D03*
Y4288000D03*
Y4542000D03*
Y4796000D03*
Y5050000D03*
X9500000Y3254000D03*
Y3000000D03*
G54D12*
X1150000Y4350000D03*
X1333500Y2984500D03*
X2540000D03*
X4150000Y3900000D03*
X7100000Y2850000D03*
Y5050000D03*
G54D13*
X550000Y4350000D03*
Y5366000D03*
X850000Y5850000D03*
X1866000D03*
X2500000Y1700000D03*
Y1250000D03*
X2540000Y2603500D03*
X2476500Y2159000D03*
X2534000Y3400000D03*
X2550000Y3900000D03*
X2534000Y5850000D03*
X3492500Y2159000D03*
X3516000Y1700000D03*
Y1250000D03*
X4150000Y2600000D03*
X3556000Y2603500D03*
X4134000Y3100000D03*
X3550000Y3400000D03*
X3566000Y3900000D03*
X3550000Y5850000D03*
X4650000Y4700000D03*
Y5716000D03*
X5143500Y952500D03*
Y1968500D03*
X5650000Y2200000D03*
Y2600000D03*
X5166000D03*
X5150000Y3100000D03*
X5600000Y4700000D03*
Y5716000D03*
X6200000Y4734000D03*
Y5750000D03*
X6985000Y1524000D03*
X6666000Y2200000D03*
Y2600000D03*
X8001000Y1524000D03*
M02*
