G04 ================== begin FILE IDENTIFICATION RECORD ==================*
G04 Layout Name:  C:/USERS/USER/DESKTOP/WORK/CADCAD3/allegro/DA_CONVERTOR.brd*
G04 Film Name:    TOP*
G04 File Format:  Gerber RS274X*
G04 File Origin:  Cadence Allegro 17.2-P019*
G04 Origin Date:  Wed Jul 31 17:00:05 2019*
G04 *
G04 Layer:  ETCH/TOP*
G04 Layer:  PIN/TOP*
G04 Layer:  VIA CLASS/TOP*
G04 *
G04 Offset:    (0.000 0.000)*
G04 Mirror:    No*
G04 Mode:      Positive*
G04 Rotation:  0*
G04 FullContactRelief:  No*
G04 UndefLineWidth:     0.000*
G04 ================== end FILE IDENTIFICATION RECORD ====================*
%FSLAX25Y25*MOMM*%
%IR0*IPPOS*OFA0.00000B0.00000*MIA0B0*SFA1.00000B1.00000*%
%ADD11C,1.524*%
%ADD13C,1.651*%
%ADD12R,1.524X1.524*%
%ADD10C,.635*%
%ADD14C,1.*%
%ADD15C,.5*%
G75*
%LPD*%
G75*
G54D10*
X500000Y500000D03*
Y6500000D03*
X9500000Y500000D03*
Y6500000D03*
G54D11*
X500000Y2738000D03*
Y2992000D03*
Y3246000D03*
Y3500000D03*
X1150000Y5112000D03*
X1333500Y1460500D03*
Y1714500D03*
Y1968500D03*
Y2222500D03*
Y2476500D03*
Y2730500D03*
X1912000Y4350000D03*
X1658000D03*
X1404000D03*
X1912000Y5112000D03*
X1658000D03*
X1404000D03*
X2095500Y1460500D03*
Y1714500D03*
Y1968500D03*
Y2222500D03*
Y2476500D03*
Y2730500D03*
Y2984500D03*
X3146000Y4950000D03*
X3400000D03*
X3530600Y2984500D03*
X5140600Y3900000D03*
X7100000Y2088000D03*
Y2342000D03*
Y2596000D03*
Y4288000D03*
Y4542000D03*
Y4796000D03*
X7862000Y2088000D03*
Y2342000D03*
Y2596000D03*
Y2850000D03*
Y4288000D03*
Y4542000D03*
Y4796000D03*
Y5050000D03*
X9500000Y3254000D03*
Y3000000D03*
G54D12*
X1150000Y4350000D03*
X1333500Y2984500D03*
X2540000D03*
X4150000Y3900000D03*
X7100000Y2850000D03*
Y5050000D03*
G54D13*
X550000Y4350000D03*
Y5366000D03*
X850000Y5850000D03*
X1866000D03*
X2500000Y1700000D03*
Y1250000D03*
X2540000Y2603500D03*
X2476500Y2159000D03*
X2534000Y3400000D03*
X2550000Y3900000D03*
X2534000Y5850000D03*
X3492500Y2159000D03*
X3516000Y1700000D03*
Y1250000D03*
X4150000Y2600000D03*
X3556000Y2603500D03*
X4134000Y3100000D03*
X3550000Y3400000D03*
X3566000Y3900000D03*
X3550000Y5850000D03*
X4650000Y4700000D03*
Y5716000D03*
X5143500Y952500D03*
Y1968500D03*
X5650000Y2200000D03*
Y2600000D03*
X5166000D03*
X5150000Y3100000D03*
X5600000Y4700000D03*
Y5716000D03*
X6200000Y4734000D03*
Y5750000D03*
X6985000Y1524000D03*
X6666000Y2200000D03*
Y2600000D03*
X8001000Y1524000D03*
G54D14*
G01X1333500Y2730500D02*
X761500D01*
X500000Y2992000D01*
G01Y3500000D02*
Y3754000D01*
X952500Y4206500D01*
Y4660500D01*
X1404000Y5112000D01*
G01D02*
X1626000Y5334000D01*
X7324000D01*
X7862000Y4796000D01*
G01X7100000Y4288000D02*
X6749000Y3937000D01*
X5905600D01*
X5492600Y4350000D01*
X1912000D01*
G54D15*
G01X2095500Y2476500D02*
X1841500D01*
X1333500Y2984500D01*
G01X3400000Y4950000D02*
X3273400Y4823400D01*
X3093500D01*
X3027400Y4889500D01*
X1943500D01*
X1404000Y4350000D01*
G01X1866000Y5850000D02*
X2191500Y5524500D01*
X4458500D01*
X4650000Y5716000D01*
G01X2500000Y1250000D02*
X2306000D01*
X2095500Y1460500D01*
G01X2500000Y1700000D02*
X2395900Y1804100D01*
X2185100D01*
X2095500Y1714500D01*
G01Y2222500D02*
X2222100D01*
X2285600Y2159000D01*
X2476500D01*
G01X2540000Y2603500D02*
X2222500D01*
X2095500Y2476500D01*
G01Y2984500D02*
X2540000D01*
G01X7862000Y4542000D02*
X6939500Y3619500D01*
X3429000D01*
X3148500Y3900000D01*
X2550000D01*
G01X4650000Y4700000D02*
X3650000D01*
X3400000Y4950000D01*
G01X3516000Y1700000D02*
X4875000D01*
X5143500Y1968500D01*
G01X3516000Y1250000D02*
X4846000D01*
X5143500Y952500D01*
G01X4150000Y2600000D02*
X4052400Y2697600D01*
X3650100D01*
X3556000Y2603500D01*
G01X3492500Y2159000D02*
X5334100D01*
X5588100Y1905000D01*
X6371000D01*
X6666000Y2200000D01*
G01X3566000Y3900000D02*
X4150000D01*
G01X5600000Y5716000D02*
X5232000Y6084000D01*
X3784000D01*
X3550000Y5850000D01*
G01X7100000Y4542000D02*
X6392000D01*
X6200000Y4734000D01*
G01X7100000Y2596000D02*
X6803000D01*
X6799000Y2600000D01*
X6666000D01*
G01X7100000Y2342000D02*
X6808000D01*
X6666000Y2200000D01*
G01X7862000Y2342000D02*
X8501500D01*
X9159500Y3000000D01*
X9500000D01*
M02*
